Coordinates
version=1
nRows=13
nColumns=63
inDegrees=yes

Units are S.I. units (second, meters, Newtons, ...)
If the header above contains a line with 'inDegrees', this indicates whether rotational values are in degrees (yes) or radians (no).

endheader
time	pelvis_tilt	pelvis_list	pelvis_rotation	pelvis_tx	pelvis_ty	pelvis_tz	hip_flexion_r	hip_adduction_r	hip_rotation_r	knee_angle_r	knee_angle_r_beta	ankle_angle_r	subtalar_angle_r	mtp_angle_r	hip_flexion_l	hip_adduction_l	hip_rotation_l	knee_angle_l	knee_angle_l_beta	ankle_angle_l	subtalar_angle_l	mtp_angle_l	L5_S1_Flex_Ext	L5_S1_Lat_Bending	L5_S1_axial_rotation	L4_L5_Flex_Ext	L4_L5_Lat_Bending	L4_L5_axial_rotation	L3_L4_Flex_Ext	L3_L4_Lat_Bending	L3_L4_axial_rotation	L2_L3_Flex_Ext	L2_L3_Lat_Bending	L2_L3_axial_rotation	L1_L2_Flex_Ext	L1_L2_Lat_Bending	L1_L2_axial_rotation	L1_T12_Flex_Ext	L1_T12_Lat_Bending	L1_T12_axial_rotation	Abs_r3	Abs_r2	Abs_r1	Abs_t1	Abs_t2	neck_flexion	neck_bending	neck_rotation	arm_flex_r	arm_add_r	arm_rot_r	elbow_flex_r	pro_sup_r	wrist_flex_r	wrist_dev_r	arm_flex_l	arm_add_l	arm_rot_l	elbow_flex_l	pro_sup_l	wrist_flex_l	wrist_dev_l
0.000000	-2.983287	-3.324193	84.209760	0.103426	1.030842	0.358339	7.267416	-2.504857	-14.910101	14.825089	0.258747	35.797434	15.800782	0.000000	6.861992	1.445686	-5.372924	12.349100	0.215532	33.796128	6.759938	0.000000	0.152367	-0.025299	1.201696	0.282962	-0.033648	1.276802	0.250324	-0.061512	1.276802	0.174141	-0.061512	1.051484	0.141488	-0.051590	0.976378	0.087063	-0.039188	0.901272	1.088345	-0.286187	6.683472	0.000000	0.000000	19.806762	1.587786	-1.757166	8.143449	-11.609418	43.847269	49.568657	87.987403	12.566870	13.821464	22.663989	-9.751789	77.798221	44.926356	56.614368	7.084555	0.729182
0.016949	-2.918943	-3.224828	84.755701	0.102411	1.030863	0.357801	7.043838	-2.522537	-15.424548	14.780820	0.257974	36.373266	16.117322	0.000000	6.804351	1.516872	-4.419422	12.384770	0.216155	34.031981	6.180493	0.000000	0.135691	-0.019027	1.215282	0.251992	-0.025306	1.291238	0.222927	-0.046263	1.291238	0.155081	-0.046263	1.063372	0.126003	-0.038801	0.987417	0.077534	-0.029473	0.911462	0.969227	-0.215241	6.759036	0.000000	0.000000	19.813418	1.250305	-2.051915	7.454911	-11.833018	43.497870	49.694723	85.308638	9.880141	11.922029	22.527824	-9.018253	79.259880	44.374241	55.256368	4.477632	0.283299
0.033898	-2.864977	-3.135244	85.193303	0.101613	1.030883	0.357351	6.853392	-2.533437	-15.833929	14.741684	0.257291	36.862974	16.393940	0.000000	6.744433	1.570057	-3.658506	12.415207	0.216686	34.221499	5.727963	0.000000	0.121747	-0.014212	1.224748	0.226096	-0.018902	1.301295	0.200018	-0.034556	1.301295	0.139144	-0.034556	1.071655	0.113054	-0.028982	0.995108	0.069566	-0.022015	0.918561	0.869625	-0.160772	6.811682	0.000000	0.000000	19.866972	0.905170	-2.295724	6.919456	-12.022161	43.256464	49.797838	83.271748	7.773841	10.353679	22.380988	-8.438794	80.325509	43.965162	54.720602	2.316792	-0.001689
0.050847	-2.820359	-3.055293	85.531821	0.101013	1.030902	0.356982	6.693678	-2.537972	-16.147023	14.706526	0.256677	37.273139	16.633589	0.000000	6.682974	1.607206	-3.070067	12.440425	0.217126	34.368132	5.385766	0.000000	0.110334	-0.010649	1.230142	0.204902	-0.014163	1.307026	0.181268	-0.025891	1.307026	0.126101	-0.025891	1.076374	0.102456	-0.021715	0.999490	0.063045	-0.016495	0.922607	0.788107	-0.120461	6.841681	0.000000	0.000000	19.961501	0.557378	-2.489473	6.525620	-12.180712	43.119255	49.879992	81.816874	6.188891	9.084408	22.224150	-7.999838	81.030190	43.686159	54.909647	0.568236	-0.142823
0.067797	-2.784059	-2.984824	85.780509	0.100588	1.030918	0.356686	6.562299	-2.536553	-16.372609	14.674186	0.256113	37.610340	16.839220	0.000000	6.620713	1.630277	-2.633999	12.460441	0.217476	34.475331	5.137323	0.000000	0.101253	-0.008132	1.231513	0.188038	-0.010815	1.308482	0.166349	-0.019772	1.308482	0.115723	-0.019772	1.077574	0.094024	-0.016582	1.000604	0.057856	-0.012596	0.923634	0.723243	-0.091989	6.849304	0.000000	0.000000	20.091085	0.211927	-2.634046	6.261938	-12.312540	43.082449	49.943178	80.884157	5.066213	8.082212	22.057976	-7.687808	81.409007	43.524275	55.726080	-0.801831	-0.157144
0.084746	-2.755047	-2.923687	85.948622	0.100317	1.030933	0.356454	6.456856	-2.529593	-16.519464	14.643507	0.255577	37.881156	17.013786	0.000000	6.558387	1.641234	-2.330195	12.475268	0.217735	34.546547	4.966051	0.000000	0.094304	-0.006457	1.228909	0.175132	-0.008587	1.305715	0.154932	-0.015698	1.305715	0.107780	-0.015698	1.075295	0.087571	-0.013166	0.998488	0.053885	-0.010001	0.921682	0.673604	-0.073038	6.834822	0.000000	0.000000	20.249803	-0.126186	-2.730323	6.116946	-12.421512	43.142250	49.989386	80.413740	4.346731	7.315086	21.883133	-7.489129	81.497044	43.466550	57.072478	-1.827210	-0.061694
0.101695	-2.732294	-2.871734	86.045413	0.100180	1.030947	0.356277	6.374950	-2.517505	-16.596366	14.613333	0.255051	38.092168	17.160236	0.000000	6.496732	1.642038	-2.138547	12.484923	0.217903	34.585232	4.855370	0.000000	0.089286	-0.005418	1.222379	0.165812	-0.007206	1.298778	0.146687	-0.013173	1.298778	0.102045	-0.013173	1.069582	0.082911	-0.011048	0.993183	0.051018	-0.008392	0.916784	0.637759	-0.061289	6.798505	0.000000	0.000000	20.431732	-0.451962	-2.779186	6.079180	-12.511496	43.294864	50.020608	80.345764	3.971367	6.751026	21.700288	-7.390226	81.329383	43.500026	58.851419	-2.541696	0.126486
0.118644	-2.714771	-2.828814	86.080137	0.100154	1.030959	0.356149	6.314183	-2.500701	-16.612093	14.582504	0.254513	38.249955	17.281525	0.000000	6.436487	1.634650	-2.038947	12.489420	0.217982	34.594835	4.788698	0.000000	0.085998	-0.004811	1.211972	0.159707	-0.006399	1.287720	0.141287	-0.011697	1.287720	0.098287	-0.011697	1.060476	0.079858	-0.009811	0.984727	0.049139	-0.007452	0.908979	0.614277	-0.054423	6.740625	0.000000	0.000000	20.630951	-0.760406	-2.781517	6.137175	-12.586360	43.536496	50.038834	80.620371	3.881042	6.358026	21.510108	-7.377522	80.941108	43.611744	60.965479	-2.979089	0.390355
0.135593	-2.701446	-2.794779	86.062048	0.100218	1.030970	0.356060	6.272157	-2.479593	-16.575424	14.549864	0.253943	38.361097	17.380602	0.000000	6.378389	1.621033	-2.011290	12.488775	0.217970	34.578808	4.749455	0.000000	0.084241	-0.004431	1.197737	0.156445	-0.005893	1.272595	0.138400	-0.010773	1.272595	0.096280	-0.010773	1.048020	0.078227	-0.009035	0.973161	0.048136	-0.006863	0.898303	0.601728	-0.050121	6.661453	0.000000	0.000000	20.841539	-1.046519	-2.738198	6.279466	-12.649970	43.863351	50.046056	81.177702	4.016680	6.104082	21.313260	-7.437443	80.367302	43.788746	63.317236	-3.173186	0.712872
0.152542	-2.691290	-2.769477	86.000401	0.100351	1.030979	0.356003	6.246473	-2.454596	-16.495136	14.514254	0.253322	38.432173	17.460421	0.000000	6.323175	1.603147	-2.035467	12.483003	0.217870	34.540602	4.721059	0.000000	0.083815	-0.004072	1.179722	0.155653	-0.005416	1.253454	0.137700	-0.009901	1.253454	0.095792	-0.009901	1.032257	0.077831	-0.008304	0.958524	0.047892	-0.006308	0.884791	0.598683	-0.046065	6.561258	0.000000	0.000000	21.057574	-1.305304	-2.650111	6.494590	-12.706196	44.271634	50.044265	81.957899	4.319203	5.957190	21.110411	-7.556413	79.643049	44.018072	65.809267	-3.157785	1.076996
0.169492	-2.683275	-2.752760	85.904449	0.100531	1.030987	0.355969	6.234732	-2.426120	-16.380007	14.474518	0.252628	38.469764	17.523932	0.000000	6.271583	1.582954	-2.091372	12.472119	0.217680	34.483668	4.686930	0.000000	0.084519	-0.003530	1.157976	0.156960	-0.004695	1.230349	0.138856	-0.008584	1.230349	0.096596	-0.008584	1.013229	0.078484	-0.007199	0.940855	0.048294	-0.005468	0.868482	0.603709	-0.039935	6.440314	0.000000	0.000000	21.273136	-1.531764	-2.518137	6.771082	-12.758904	44.757550	50.035452	82.901104	4.729533	5.885345	20.902228	-7.720855	78.803431	44.286764	68.344148	-2.966683	1.465685
0.186441	-2.671213	-2.752817	85.773467	0.100704	1.030973	0.355897	6.243767	-2.391963	-16.241858	14.429649	0.251845	38.494386	17.593776	0.000000	6.225355	1.563612	-2.119008	12.449187	0.217279	34.401466	4.549364	0.000000	0.087161	-0.000782	1.121655	0.161866	-0.001040	1.191759	0.143196	-0.001902	1.191759	0.099616	-0.001902	0.981448	0.080937	-0.001595	0.911345	0.049804	-0.001212	0.841241	0.622580	-0.008849	6.238309	0.000000	0.000000	21.483836	-1.734742	-2.267751	7.101516	-12.820489	45.435610	50.052992	83.589722	4.987824	5.897284	20.550236	-7.922528	77.563523	44.589146	70.839535	-2.692911	1.815850
0.203390	-2.653648	-2.755100	85.645486	0.100854	1.030970	0.355842	6.248193	-2.349848	-16.099128	14.372353	0.250845	38.495232	17.645709	0.000000	6.178925	1.546074	-2.087326	12.427742	0.216905	34.289108	4.316002	0.000000	0.089233	0.003132	1.084652	0.165715	0.004166	1.152443	0.146602	0.007616	1.152443	0.101985	0.007616	0.949071	0.082862	0.006387	0.881280	0.050988	0.004852	0.813489	0.637385	0.035433	6.032510	0.000000	0.000000	21.669414	-1.848561	-1.972424	7.491116	-12.902457	46.195991	50.051554	84.462146	5.215601	5.817169	20.280504	-8.122660	76.559232	44.881416	72.786359	-2.382427	2.153783
